<svg xmlns="http://www.w3.org/2000/svg" version="1.1" xmlns:xlink="http://www.w3.org/1999/xlink" width="1000" height="1000"><style>
    #light-icon {
      display: inline;
    }
    #dark-icon {
      display: none;
    }

    @media (prefers-color-scheme: dark) {
      #light-icon {
        display: none;
      }
      #dark-icon {
        display: inline;
      }
    }
  </style><g id="light-icon"><svg xmlns="http://www.w3.org/2000/svg" version="1.1" xmlns:xlink="http://www.w3.org/1999/xlink" width="1000" height="1000"><g><g transform="matrix(62.5,0,0,62.5,0,0)"><svg xmlns="http://www.w3.org/2000/svg" viewBox="0 0 16 16" id="Monero--Streamline-Font-Awesome" height="16" width="16"><desc>
    Monero Streamline Icon: https://streamlinehq.com
  </desc><path d="M11.28774193548387 12.046451612903226h3.426838709677419C13.34258064516129 14.31941935483871 10.848322580645162 15.84 8 15.84S2.6574193548387095 14.31941935483871 1.2854193548387096 12.046451612903226H4.71225806451613V8.006322580645161L8 11.319354838709677 11.28774193548387 8v4.046451612903225ZM2.9419354838709677 10.529032258064515V3.9535483870967743l5.039096774193548 5.039096774193548L13.058064516129033 3.9535483870967743V10.529032258064515h2.3646451612903228c0.2687096774193548 -0.7934838709677419 0.41729032258064513 -1.6438709677419354 0.41729032258064513 -2.5290322580645164C15.84 3.669032258064516 12.330967741935483 0.16 8 0.16S0.16 3.669032258064516 0.16 8c0 0.8851612903225806 0.14541935483870969 1.735548387096774 0.41729032258064513 2.5290322580645164H2.9419354838709677Z" fill="#000000" stroke-width="0.0323"></path></svg></g></g></svg></g><g id="dark-icon"><svg xmlns="http://www.w3.org/2000/svg" version="1.1" xmlns:xlink="http://www.w3.org/1999/xlink" width="1000" height="1000"><g clip-path="url(#SvgjsClipPath1139)"><rect width="1000" height="1000" fill="#ffffff"></rect><g transform="matrix(56.25,0,0,56.25,50,50)"><svg xmlns="http://www.w3.org/2000/svg" viewBox="0 0 16 16" id="Monero--Streamline-Font-Awesome" height="16" width="16"><desc>
    Monero Streamline Icon: https://streamlinehq.com
  </desc><path d="M11.28774193548387 12.046451612903226h3.426838709677419C13.34258064516129 14.31941935483871 10.848322580645162 15.84 8 15.84S2.6574193548387095 14.31941935483871 1.2854193548387096 12.046451612903226H4.71225806451613V8.006322580645161L8 11.319354838709677 11.28774193548387 8v4.046451612903225ZM2.9419354838709677 10.529032258064515V3.9535483870967743l5.039096774193548 5.039096774193548L13.058064516129033 3.9535483870967743V10.529032258064515h2.3646451612903228c0.2687096774193548 -0.7934838709677419 0.41729032258064513 -1.6438709677419354 0.41729032258064513 -2.5290322580645164C15.84 3.669032258064516 12.330967741935483 0.16 8 0.16S0.16 3.669032258064516 0.16 8c0 0.8851612903225806 0.14541935483870969 1.735548387096774 0.41729032258064513 2.5290322580645164H2.9419354838709677Z" fill="#000000" stroke-width="0.0323"></path></svg></g></g><defs><clipPath id="SvgjsClipPath1139"><rect width="1000" height="1000" x="0" y="0" rx="350" ry="350"></rect></clipPath></defs></svg></g></svg>